# xmcd
#
# Track frame offsets: 
#        150
#        12296
#        25872
#        41702
#        60888
#        73028
#        87676
#        101177
#        118984
#        131174
#        146673
#
# Disc length: 2168 seconds
#
# Revision: 0
# Processed by: cddbd v1.5.2PL0 Copyright (c) Steve Scherf et al.
# Submitted via: ExactAudioCopy v1.3
#
DISCID=a208760b
DTITLE=Bonepickers - Strollin'
DYEAR=2014
DGENRE=Blues
TTITLE0=Tell Me The Reason
TTITLE1=Blue Mood
TTITLE2=Party Girl
TTITLE3=Evening
TTITLE4=Strollin'
TTITLE5=I Get So Weary
TTITLE6=Inspiration Blues
TTITLE7=Life Is Too Short
TTITLE8=Alimony Blues
TTITLE9=Get These Blues Off Me
TTITLE10=2 Bones
EXTD=
EXTT0=
EXTT1=
EXTT2=
EXTT3=
EXTT4=
EXTT5=
EXTT6=
EXTT7=
EXTT8=
EXTT9=
EXTT10=
PLAYORDER=
